<svg width="1401" height="535" viewBox="0 0 1401 535" fill="none" xmlns="http://www.w3.org/2000/svg">
<g clip-path="url(#clip0_1_3)">
<path d="M174.97 403H137.587C136.513 403 135.975 402.463 135.975 401.389L136.298 174.675C136.298 173.815 136.727 173.386 137.587 173.386H174.647C175.507 173.386 175.936 173.815 175.936 174.675L176.259 401.389C176.259 402.463 175.829 403 174.97 403ZM348.284 403H308.323C307.356 403 306.819 402.463 306.712 401.389L261.111 174.675C260.896 173.815 261.326 173.386 262.4 173.386H299.783C300.642 173.386 301.18 173.815 301.394 174.675L328.465 325.817L354.89 174.675C355.105 173.815 355.642 173.386 356.502 173.386H393.401C394.583 173.386 395.013 173.815 394.69 174.675L349.895 401.389C349.788 402.463 349.251 403 348.284 403ZM707.281 403H674.249C672.53 403 671.671 402.248 671.671 400.744L671.349 175.964C671.349 174.245 672.208 173.386 673.927 173.386H703.737L759.488 303.42L757.877 175.964C757.877 174.245 758.844 173.386 760.778 173.386H793.487C794.777 173.386 795.421 174.245 795.421 175.964L795.743 401.066C795.743 402.355 795.206 403 794.132 403H765.128L707.926 281.506L710.343 400.422C710.343 402.141 709.322 403 707.281 403ZM960.84 403H923.618C922.652 403 922.168 402.463 922.168 401.389V213.186H879.307C878.233 213.186 877.695 212.648 877.695 211.574L878.018 174.675C878.018 173.815 878.447 173.386 879.307 173.386H1004.67C1005.85 173.386 1006.44 173.815 1006.44 174.675V211.574C1006.44 212.648 1006.01 213.186 1005.15 213.186H961.807L962.129 401.389C962.129 402.463 961.699 403 960.84 403ZM1127.55 403H1090.17C1089.09 403 1088.55 402.463 1088.55 401.389L1088.88 174.675C1088.88 173.815 1089.31 173.386 1090.17 173.386H1127.23C1128.09 173.386 1128.51 173.815 1128.51 174.675L1128.84 401.389C1128.84 402.463 1128.41 403 1127.55 403ZM1262.84 403H1225.45C1224.38 403 1223.84 402.463 1223.84 401.389L1224.16 174.675C1224.16 173.815 1224.59 173.386 1225.45 173.386H1262.51C1263.37 173.386 1263.8 173.815 1263.8 174.675L1264.12 401.389C1264.12 402.463 1263.69 403 1262.84 403Z" fill="#4577FA"/>
<path d="M488.439 272.135C489.084 278.043 490.48 283.683 492.629 289.054C494.777 294.317 497.517 298.99 500.847 303.072C504.177 307.047 508.044 310.216 512.448 312.579C516.853 314.942 521.579 316.124 526.628 316.124C535.974 316.124 543.708 313.6 549.831 308.551C556.062 303.395 561.003 295.714 564.655 285.509H599.782C597.634 295.284 594.143 303.985 589.309 311.612C584.582 319.239 578.942 325.685 572.39 330.948C565.837 336.212 558.586 340.24 550.637 343.033C542.795 345.826 534.685 347.223 526.306 347.223C514.489 347.223 503.854 344.859 494.401 340.133C484.948 335.406 476.892 329.068 470.231 321.119C463.571 313.17 458.415 303.932 454.763 293.404C451.218 282.77 449.445 271.598 449.445 259.889C449.445 248.932 451.218 238.458 454.763 228.468C458.415 218.37 463.571 209.508 470.231 201.881C476.892 194.146 484.948 188.023 494.401 183.512C503.962 179 514.65 176.744 526.467 176.744C537.854 176.744 548.166 178.785 557.404 182.867C566.643 186.949 574.538 192.643 581.091 199.947C587.644 207.145 592.639 215.685 596.076 225.567C599.621 235.343 601.394 245.924 601.394 257.311V272.135H488.439ZM562.722 243.292C562.077 238.136 560.734 233.463 558.693 229.273C556.76 225.084 554.182 221.485 550.959 218.478C547.736 215.362 543.923 212.999 539.519 211.388C535.114 209.669 530.28 208.81 525.017 208.81C520.183 208.81 515.671 209.723 511.481 211.549C507.399 213.375 503.747 215.846 500.524 218.961C497.409 222.076 494.777 225.729 492.629 229.918C490.588 234.107 489.191 238.565 488.439 243.292H562.722Z" fill="#4577FA"/>
<path d="M439.938 379.61H610.9V397.335H439.938V379.61Z" fill="#4577FA"/>
</g>
<defs>
<clipPath id="clip0_1_3">
<rect width="1401" height="535" fill="white"/>
</clipPath>
</defs>
</svg>
